<svg width="20" height="22" viewBox="0 0 20 22" fill="none" xmlns="http://www.w3.org/2000/svg">
<path d="M16.5833 19.1693L11.1042 13.3404C10.6875 13.7246 10.2014 14.0238 9.64583 14.238C9.09028 14.4523 8.5 14.5594 7.875 14.5594C6.375 14.5594 5.10417 14.0053 4.0625 12.8972C3.02083 11.789 2.5 10.4518 2.5 8.88564C2.5 7.31945 3.02083 5.98227 4.0625 4.87412C5.10417 3.76596 6.36806 3.21188 7.85417 3.21188C9.32639 3.21188 10.5799 3.76596 11.6146 4.87412C12.6493 5.98227 13.1667 7.31945 13.1667 8.88564C13.1667 9.52098 13.0694 10.1342 12.875 10.7252C12.6806 11.3162 12.3889 11.8703 12 12.3874L17.5 18.1942L16.5833 19.1693ZM7.85417 13.2296C8.97917 13.2296 9.9375 12.8048 10.7292 11.9552C11.5208 11.1056 11.9167 10.0824 11.9167 8.88564C11.9167 7.68883 11.5208 6.66563 10.7292 5.81605C9.9375 4.96646 8.97917 4.54167 7.85417 4.54167C6.71528 4.54167 5.74653 4.96646 4.94792 5.81605C4.14931 6.66563 3.75 7.68883 3.75 8.88564C3.75 10.0824 4.14931 11.1056 4.94792 11.9552C5.74653 12.8048 6.71528 13.2296 7.85417 13.2296Z" fill="#6B7073"/>
</svg>
