<svg width="37" height="37" viewBox="0 0 37 37" fill="none" xmlns="http://www.w3.org/2000/svg">
<circle cx="18.5" cy="18.5" r="18.5" fill="#E4E4E4"/>
<g clip-path="url(#clip0_7581_36)">
<path d="M29.7005 10.6022C29.666 10.6941 29.6683 10.793 29.6476 10.8872C29.4936 11.6043 29.3419 12.3215 29.1879 13.0386C28.9328 14.2361 28.6777 15.4336 28.4226 16.6311C28.1192 18.0562 27.8134 19.4789 27.5101 20.904C27.2365 22.1912 26.9607 23.476 26.6872 24.7632C26.5102 25.5929 26.3332 26.4204 26.1539 27.2501C26.1126 27.4432 26.0436 27.6317 25.9471 27.8064C25.6919 28.273 25.2828 28.4453 24.7703 28.3051C24.4829 28.227 24.2347 28.0753 23.9957 27.9006C22.3477 26.6893 20.695 25.4803 19.0447 24.2713C18.9942 24.2345 18.9666 24.2299 18.9183 24.2782C18.0518 25.1102 17.183 25.9377 16.3164 26.7697C16.1257 26.9513 15.9188 27.1007 15.6545 27.1467C15.574 27.1605 15.4936 27.1697 15.4131 27.1697C15.3786 27.1697 15.3695 27.1605 15.3718 27.1237C15.4108 26.5836 15.4499 26.0411 15.489 25.501C15.5143 25.1378 15.5395 24.777 15.5648 24.4138C15.6016 23.9012 15.6384 23.3887 15.6752 22.8761C15.6958 22.575 15.7211 22.2762 15.7349 21.9751C15.7395 21.8786 15.7671 21.8096 15.8429 21.743C17.5139 20.2466 19.1826 18.748 20.8513 17.2494C22.2327 16.0105 23.6118 14.7694 24.9932 13.5305C25.1656 13.3765 25.338 13.2202 25.5104 13.0662C25.5701 13.0133 25.6276 12.9604 25.6621 12.8869C25.7149 12.7812 25.6805 12.6961 25.5678 12.6593C25.4575 12.6226 25.3449 12.6387 25.2368 12.6662C25.1173 12.6961 25.0093 12.749 24.9036 12.8133C22.5476 14.2867 20.1917 15.7623 17.838 17.2356C16.1693 18.2791 14.5006 19.3249 12.8319 20.3685C12.7975 20.3891 12.7699 20.4029 12.7262 20.3914C10.9908 19.8513 9.25319 19.3112 7.51783 18.7687C7.31097 18.7044 7.1179 18.6147 6.95011 18.4699C6.69038 18.247 6.66509 17.9642 6.88345 17.6999C7.07193 17.4701 7.32246 17.3253 7.58908 17.2103C8.09935 16.9897 8.6234 16.8058 9.14286 16.6058C12.2619 15.4083 15.3786 14.2154 18.4954 13.0225C21.0835 12.0319 23.6716 11.0412 26.2574 10.0506C26.9078 9.80233 27.5583 9.55179 28.2111 9.30585C28.4524 9.21391 28.703 9.18173 28.9581 9.24609C29.3511 9.34493 29.5626 9.61385 29.6568 9.9931C29.6752 10.0712 29.6867 10.1517 29.7028 10.2298C29.7005 10.3517 29.7005 10.4781 29.7005 10.6022Z" fill="#6B7073"/>
</g>
<defs>
<clipPath id="clip0_7581_36">
<rect width="22.9848" height="22.9848" fill="white" transform="translate(6.72705 7.28784)"/>
</clipPath>
</defs>
</svg>
