<svg width="38" height="37" viewBox="0 0 38 37" fill="none" xmlns="http://www.w3.org/2000/svg">
<circle cx="19.2607" cy="18.5" r="18.5" fill="#E4E4E4"/>
<g clip-path="url(#clip0_7581_31)">
<path d="M20.9157 15.2798C20.9157 16.121 20.9111 16.9646 20.918 17.8058C20.9203 17.9667 20.9409 18.1345 20.9892 18.2885C21.0743 18.5574 21.2581 18.6471 21.5202 18.5436C21.6719 18.4839 21.819 18.3896 21.9477 18.2885C22.4304 17.9046 22.8096 17.4266 23.1682 16.9301C24.122 15.6131 24.8828 14.1857 25.531 12.6986C25.6919 12.3285 25.9195 12.0366 26.3332 11.947C26.4458 11.9217 26.563 11.9102 26.678 11.9102C27.5031 11.9079 28.3306 11.9056 29.1557 11.9102C29.289 11.9102 29.427 11.9263 29.558 11.9585C29.8775 12.0412 30.0292 12.2825 29.9763 12.6089C29.9073 13.0181 29.751 13.3973 29.5718 13.7674C29.1281 14.6845 28.6018 15.5533 28.0525 16.4106C27.5928 17.1301 27.117 17.838 26.6504 18.5528C26.563 18.6861 26.4849 18.824 26.409 18.9642C26.2964 19.1688 26.2872 19.3872 26.4205 19.5779C26.5791 19.8055 26.7469 20.033 26.9446 20.2261C27.7008 20.9731 28.4271 21.7454 29.096 22.5706C29.4936 23.0601 29.8958 23.5474 30.19 24.1083C30.3027 24.3243 30.3946 24.5611 30.4452 24.7978C30.5417 25.2529 30.2958 25.577 29.8338 25.6505C29.7166 25.6689 29.5947 25.6758 29.4752 25.6758C28.6799 25.6781 27.887 25.6712 27.0917 25.6804C26.6987 25.685 26.3562 25.5655 26.0804 25.2943C25.754 24.9725 25.4414 24.6369 25.1334 24.2967C24.4576 23.5497 23.7727 22.8142 22.9728 22.1959C22.6786 21.9684 22.3729 21.7615 22.0235 21.6213C21.8098 21.5362 21.5914 21.5133 21.3662 21.5385C21.1202 21.5661 20.9984 21.6696 20.9547 21.9155C20.9272 22.0764 20.9134 22.2396 20.9134 22.4028C20.9088 23.1383 20.9111 23.8715 20.9111 24.607C20.9111 24.7036 20.9134 24.8001 20.8996 24.8943C20.849 25.2644 20.6398 25.4621 20.2008 25.5563C19.725 25.6597 19.2424 25.6712 18.7597 25.6413C16.9784 25.5333 15.4292 24.8323 14.0271 23.7681C12.9606 22.959 12.0918 21.9661 11.3356 20.8674C10.207 19.2309 9.20029 17.5277 8.4165 15.7004C8.04645 14.8385 7.71776 13.9627 7.53388 13.0388C7.49251 12.8296 7.48102 12.6112 7.49481 12.3998C7.5086 12.1538 7.67179 12.0044 7.90164 11.9378C8.01657 11.9056 8.13609 11.8849 8.25561 11.8849C9.14282 11.8803 10.0277 11.8826 10.915 11.8826C11.331 11.8826 11.6413 12.0642 11.8068 12.448C11.9401 12.7583 12.0504 13.0801 12.1699 13.3973C12.7721 15.004 13.503 16.5462 14.45 17.9805C14.7626 18.454 15.0959 18.9137 15.5211 19.2952C15.6498 19.4102 15.7969 19.5159 15.9509 19.5917C16.2451 19.7342 16.4865 19.6101 16.5508 19.2906C16.583 19.132 16.5991 18.9665 16.5991 18.8034C16.6037 17.53 16.6083 16.2566 16.5991 14.9833C16.5945 14.2983 16.3922 13.6731 15.9486 13.1353C15.8705 13.041 15.7969 12.9399 15.728 12.8388C15.5947 12.6388 15.5602 12.4228 15.6774 12.2067C15.7992 11.9814 16.0015 11.8849 16.252 11.8826C16.8106 11.8803 17.3691 11.8826 17.9276 11.8826C18.6631 11.8826 19.3964 11.8826 20.1319 11.8826C20.2123 11.8826 20.2905 11.8872 20.3709 11.8987C20.6375 11.9355 20.8076 12.0941 20.8628 12.3538C20.8973 12.517 20.9134 12.6848 20.9134 12.8526C20.918 13.6593 20.9157 14.4707 20.9157 15.2798Z" fill="#6B7073"/>
</g>
<defs>
<clipPath id="clip0_7581_31">
<rect width="22.9848" height="22.9848" fill="white" transform="translate(7.48779 7.28784)"/>
</clipPath>
</defs>
</svg>
